<svg width="25" height="26" viewBox="0 0 25 26" fill="none" xmlns="http://www.w3.org/2000/svg">
<path d="M24.6282 5.3483C23.7584 5.74913 22.824 6.01996 21.8417 6.14238C22.8552 5.51165 23.6135 4.51897 23.975 3.34955C23.0228 3.93779 21.9806 4.35184 20.8938 4.57371C20.1629 3.76215 19.1949 3.22423 18.14 3.04348C17.085 2.86272 16.0022 3.04924 15.0597 3.57407C14.1171 4.0989 13.3675 4.93269 12.9273 5.94598C12.487 6.95926 12.3808 8.09536 12.625 9.17788C10.6955 9.07713 8.80798 8.55556 7.08485 7.64703C5.36172 6.7385 3.84153 5.4633 2.62295 3.90421C2.20628 4.65171 1.9667 5.51838 1.9667 6.44138C1.96623 7.27229 2.16298 8.09048 2.53949 8.82334C2.916 9.5562 3.46062 10.1811 4.12503 10.6425C3.35449 10.617 2.60094 10.4005 1.92712 10.011V10.076C1.92704 11.2413 2.31465 12.3709 3.02418 13.2729C3.73371 14.1749 4.72146 14.7938 5.81983 15.0246C5.10502 15.2258 4.35559 15.2555 3.62816 15.1113C3.93805 16.114 4.5417 16.9909 5.35458 17.6191C6.16747 18.2474 7.14891 18.5955 8.16149 18.6148C6.44257 20.0182 4.31971 20.7794 2.13441 20.776C1.7473 20.7762 1.36053 20.7526 0.976074 20.7056C3.19428 22.1889 5.77643 22.9761 8.41358 22.973C17.3407 22.973 22.2209 15.2835 22.2209 8.61455C22.2209 8.39788 22.2157 8.17905 22.2063 7.96238C23.1556 7.24844 23.9749 6.36435 24.6261 5.35155L24.6282 5.3483Z" fill="white"/>
</svg>
