<svg width="26" height="26" viewBox="0 0 26 26" fill="none" xmlns="http://www.w3.org/2000/svg">
<g clip-path="url(#clip0_30_138)">
<path d="M25.7417 7.79999C25.7417 7.79999 25.4882 6.00762 24.7066 5.22112C23.7169 4.18599 22.6087 4.17949 22.1017 4.11937C18.4666 3.85449 13.0066 3.85449 13.0066 3.85449H12.9968C12.9968 3.85449 7.53843 3.85449 3.90168 4.11937C3.39305 4.18112 2.28643 4.18599 1.2968 5.22112C0.515179 6.00762 0.266554 7.79999 0.266554 7.79999C0.266554 7.79999 0.00817871 9.90274 0.00817871 12.0104V13.9815C0.00817871 16.0842 0.266554 18.1919 0.266554 18.1919C0.266554 18.1919 0.520054 19.9842 1.2968 20.7724C2.28643 21.8075 3.58643 21.7734 4.16655 21.8839C6.24818 22.0821 13.0082 22.1422 13.0082 22.1422C13.0082 22.1422 18.4731 22.1325 22.1082 21.8725C22.6168 21.8124 23.7234 21.8059 24.7131 20.7707C25.4947 19.9842 25.7482 18.1902 25.7482 18.1902C25.7482 18.1902 26.0066 16.0875 26.0066 13.9799V12.0087C26.0017 9.90599 25.7433 7.79837 25.7433 7.79837L25.7417 7.79999ZM10.3139 16.3719V9.06424L17.3372 12.7302L10.3139 16.3719Z" fill="white"/>
</g>
<defs>
<clipPath id="clip0_30_138">
<rect width="26" height="26" fill="white"/>
</clipPath>
</defs>
</svg>
